<?xml version="1.0" encoding="utf-8" standalone="no"?>
<!DOCTYPE svg PUBLIC "-//W3C//DTD SVG 1.1//EN"
  "http://www.w3.org/Graphics/SVG/1.1/DTD/svg11.dtd">
<!-- Created with matplotlib (https://matplotlib.org/) -->
<svg height="236.16pt" version="1.1" viewBox="0 0 572.4 236.16" width="572.4pt" xmlns="http://www.w3.org/2000/svg" xmlns:xlink="http://www.w3.org/1999/xlink">
 <metadata>
  <rdf:RDF xmlns:cc="http://creativecommons.org/ns#" xmlns:dc="http://purl.org/dc/elements/1.1/" xmlns:rdf="http://www.w3.org/1999/02/22-rdf-syntax-ns#">
   <cc:Work>
    <dc:type rdf:resource="http://purl.org/dc/dcmitype/StillImage"/>
    <dc:date>2022-03-22T16:58:10.419164</dc:date>
    <dc:format>image/svg+xml</dc:format>
    <dc:creator>
     <cc:Agent>
      <dc:title>Matplotlib v3.3.4, https://matplotlib.org/</dc:title>
     </cc:Agent>
    </dc:creator>
   </cc:Work>
  </rdf:RDF>
 </metadata>
 <defs>
  <style type="text/css">*{stroke-linecap:butt;stroke-linejoin:round;}</style>
 </defs>
 <g id="figure_1">
  <g id="patch_1">
   <path d="M 0 236.16 
L 572.4 236.16 
L 572.4 0 
L 0 0 
z
" style="fill:#ffffff;"/>
  </g>
  <g id="axes_1">
   <g id="line2d_1">
    <path clip-path="url(#p4a0b68fb6b)" d="M 7.2 118.08 
L 565.2 118.08 
" style="fill:none;stroke:#000000;stroke-linecap:square;stroke-width:1.5;"/>
   </g>
   <g id="PathCollection_1">
    <defs>
     <path d="M 0 8.660254 
C 2.296726 8.660254 4.499694 7.747755 6.123724 6.123724 
C 7.747755 4.499694 8.660254 2.296726 8.660254 0 
C 8.660254 -2.296726 7.747755 -4.499694 6.123724 -6.123724 
C 4.499694 -7.747755 2.296726 -8.660254 0 -8.660254 
C -2.296726 -8.660254 -4.499694 -7.747755 -6.123724 -6.123724 
C -7.747755 -4.499694 -8.660254 -2.296726 -8.660254 0 
C -8.660254 2.296726 -7.747755 4.499694 -6.123724 6.123724 
C -4.499694 7.747755 -2.296726 8.660254 0 8.660254 
z
" id="m15ff62892b" style="stroke:#808080;stroke-opacity:0.5;"/>
    </defs>
    <g clip-path="url(#p4a0b68fb6b)">
     <use style="fill:#808080;fill-opacity:0.5;stroke:#808080;stroke-opacity:0.5;" x="216.45" xlink:href="#m15ff62892b" y="118.08"/>
     <use style="fill:#808080;fill-opacity:0.5;stroke:#808080;stroke-opacity:0.5;" x="251.325" xlink:href="#m15ff62892b" y="118.08"/>
     <use style="fill:#808080;fill-opacity:0.5;stroke:#808080;stroke-opacity:0.5;" x="286.2" xlink:href="#m15ff62892b" y="118.08"/>
     <use style="fill:#808080;fill-opacity:0.5;stroke:#808080;stroke-opacity:0.5;" x="321.075" xlink:href="#m15ff62892b" y="118.08"/>
     <use style="fill:#808080;fill-opacity:0.5;stroke:#808080;stroke-opacity:0.5;" x="355.95" xlink:href="#m15ff62892b" y="118.08"/>
     <use style="fill:#808080;fill-opacity:0.5;stroke:#808080;stroke-opacity:0.5;" x="390.825" xlink:href="#m15ff62892b" y="118.08"/>
    </g>
   </g>
   <g id="line2d_2">
    <path clip-path="url(#p4a0b68fb6b)" d="M 7.2 7.2 
L 9.06 7.297261 
L 10.92 7.588872 
L 12.78 8.074322 
L 14.64 8.752759 
L 16.5 9.622994 
L 18.36 10.683499 
L 20.22 11.932414 
L 22.08 13.367548 
L 23.94 14.986383 
L 25.8 16.78608 
L 27.66 18.76348 
L 29.52 20.915115 
L 33.24 25.725693 
L 36.96 31.184069 
L 40.68 37.251959 
L 44.4 43.886798 
L 48.12 51.04205 
L 51.84 58.667525 
L 55.56 66.709736 
L 61.14 79.430331 
L 66.72 92.760456 
L 76.02 115.757904 
L 87.18 143.399544 
L 92.76 156.729669 
L 98.34 169.450264 
L 102.06 177.492475 
L 105.78 185.11795 
L 109.5 192.273202 
L 113.22 198.908041 
L 116.94 204.975931 
L 120.66 210.434307 
L 124.38 215.244885 
L 126.24 217.39652 
L 128.1 219.37392 
L 129.96 221.173617 
L 131.82 222.792452 
L 133.68 224.227586 
L 135.54 225.476501 
L 137.4 226.537006 
L 139.26 227.407241 
L 141.12 228.085678 
L 142.98 228.571128 
L 144.84 228.862739 
L 146.7 228.96 
L 148.56 228.862739 
L 150.42 228.571128 
L 152.28 228.085678 
L 154.14 227.407241 
L 156 226.537006 
L 157.86 225.476501 
L 159.72 224.227586 
L 161.58 222.792452 
L 163.44 221.173617 
L 165.3 219.37392 
L 167.16 217.39652 
L 169.02 215.244885 
L 172.74 210.434307 
L 176.46 204.975931 
L 180.18 198.908041 
L 183.9 192.273202 
L 187.62 185.11795 
L 191.34 177.492475 
L 195.06 169.450264 
L 200.64 156.729669 
L 206.22 143.399544 
L 215.52 120.402096 
L 226.68 92.760456 
L 232.26 79.430331 
L 237.84 66.709736 
L 241.56 58.667525 
L 245.28 51.04205 
L 249 43.886798 
L 252.72 37.251959 
L 256.44 31.184069 
L 260.16 25.725693 
L 263.88 20.915115 
L 265.74 18.76348 
L 267.6 16.78608 
L 269.46 14.986383 
L 271.32 13.367548 
L 273.18 11.932414 
L 275.04 10.683499 
L 276.9 9.622994 
L 278.76 8.752759 
L 280.62 8.074322 
L 282.48 7.588872 
L 284.34 7.297261 
L 286.2 7.2 
L 288.06 7.297261 
L 289.92 7.588872 
L 291.78 8.074322 
L 293.64 8.752759 
L 295.5 9.622994 
L 297.36 10.683499 
L 299.22 11.932414 
L 301.08 13.367548 
L 302.94 14.986383 
L 304.8 16.78608 
L 306.66 18.76348 
L 308.52 20.915115 
L 312.24 25.725693 
L 315.96 31.184069 
L 319.68 37.251959 
L 323.4 43.886798 
L 327.12 51.04205 
L 330.84 58.667525 
L 334.56 66.709736 
L 340.14 79.430331 
L 345.72 92.760456 
L 355.02 115.757904 
L 366.18 143.399544 
L 371.76 156.729669 
L 377.34 169.450264 
L 381.06 177.492475 
L 384.78 185.11795 
L 388.5 192.273202 
L 392.22 198.908041 
L 395.94 204.975931 
L 399.66 210.434307 
L 403.38 215.244885 
L 405.24 217.39652 
L 407.1 219.37392 
L 408.96 221.173617 
L 410.82 222.792452 
L 412.68 224.227586 
L 414.54 225.476501 
L 416.4 226.537006 
L 418.26 227.407241 
L 420.12 228.085678 
L 421.98 228.571128 
L 423.84 228.862739 
L 425.7 228.96 
L 427.56 228.862739 
L 429.42 228.571128 
L 431.28 228.085678 
L 433.14 227.407241 
L 435 226.537006 
L 436.86 225.476501 
L 438.72 224.227586 
L 440.58 222.792452 
L 442.44 221.173617 
L 444.3 219.37392 
L 446.16 217.39652 
L 448.02 215.244885 
L 451.74 210.434307 
L 455.46 204.975931 
L 459.18 198.908041 
L 462.9 192.273202 
L 466.62 185.11795 
L 470.34 177.492475 
L 474.06 169.450264 
L 479.64 156.729669 
L 485.22 143.399544 
L 494.52 120.402096 
L 505.68 92.760456 
L 511.26 79.430331 
L 516.84 66.709736 
L 520.56 58.667525 
L 524.28 51.04205 
L 528 43.886798 
L 531.72 37.251959 
L 535.44 31.184069 
L 539.16 25.725693 
L 542.88 20.915115 
L 544.74 18.76348 
L 546.6 16.78608 
L 548.46 14.986383 
L 550.32 13.367548 
L 552.18 11.932414 
L 554.04 10.683499 
L 555.9 9.622994 
L 557.76 8.752759 
L 559.62 8.074322 
L 561.48 7.588872 
L 563.34 7.297261 
L 565.2 7.2 
L 565.2 7.2 
" style="fill:none;stroke:#000000;stroke-dasharray:3.7,1.6;stroke-dashoffset:0;"/>
   </g>
   <g id="line2d_3">
    <path clip-path="url(#p4a0b68fb6b)" d="M 7.2 58.272389 
L 9.06 47.076338 
L 10.92 20.347894 
L 12.78 16.27712 
L 14.64 60.899616 
L 16.5 139.116933 
L 18.36 204.906936 
L 20.22 224.062678 
L 22.08 203.146118 
L 23.94 177.396524 
L 25.8 176.030576 
L 27.66 197.222348 
L 29.52 210.921587 
L 31.38 187.013175 
L 35.1 62.70955 
L 36.96 32.700938 
L 38.82 41.843005 
L 40.68 65.743908 
L 42.54 76.293754 
L 44.4 66.121835 
L 46.26 52.509798 
L 48.12 59.851376 
L 49.98 95.330953 
L 51.84 140.339632 
L 53.7 168.020882 
L 55.56 168.27194 
L 57.42 153.181151 
L 59.28 141.57748 
L 61.14 141.839235 
L 63 147.464258 
L 64.86 146.185871 
L 66.72 133.198771 
L 68.58 115.99118 
L 70.44 105.909178 
L 72.3 106.489884 
L 74.16 112.189278 
L 76.02 116.696318 
L 77.88 119.372382 
L 79.74 123.403629 
L 81.6 129.11412 
L 83.46 130.737468 
L 85.32 121.834467 
L 87.18 104.375798 
L 89.04 89.368929 
L 90.9 86.036201 
L 92.76 91.890292 
L 94.62 95.022034 
L 96.48 86.465176 
L 98.34 71.427934 
L 100.2 68.139118 
L 102.06 91.726313 
L 103.92 136.155982 
L 105.78 175.622896 
L 107.64 188.094739 
L 109.5 175.797008 
L 111.36 161.440828 
L 113.22 165.900338 
L 115.08 187.58801 
L 116.94 200.84835 
L 118.8 177.753678 
L 120.66 117.497534 
L 122.52 52.87584 
L 124.38 21.418098 
L 126.24 30.848026 
L 128.1 55.2702 
L 129.96 61.860833 
L 131.82 41.408513 
L 133.68 18.027644 
L 135.54 29.073282 
L 137.4 88.624682 
L 139.26 168.385374 
L 141.12 221.008123 
L 142.98 223.971499 
L 144.84 196.71759 
L 146.7 177.887611 
L 148.56 189.083662 
L 150.42 215.812106 
L 152.28 219.88288 
L 154.14 175.260384 
L 156 97.043067 
L 157.86 31.253064 
L 159.72 12.097322 
L 161.58 33.013882 
L 163.44 58.763476 
L 165.3 60.129424 
L 167.16 38.937652 
L 169.02 25.238413 
L 170.88 49.146825 
L 174.6 173.45045 
L 176.46 203.459062 
L 178.32 194.316995 
L 180.18 170.416092 
L 182.04 159.866246 
L 183.9 170.038165 
L 185.76 183.650202 
L 187.62 176.308624 
L 189.48 140.829047 
L 191.34 95.820368 
L 193.2 68.139118 
L 195.06 67.88806 
L 196.92 82.978849 
L 198.78 94.58252 
L 200.64 94.320765 
L 202.5 88.695742 
L 204.36 89.974129 
L 206.22 102.961229 
L 208.08 120.16882 
L 209.94 130.250822 
L 211.8 129.670116 
L 213.66 123.970722 
L 215.52 119.463682 
L 217.38 116.787618 
L 219.24 112.756371 
L 221.1 107.04588 
L 222.96 105.422532 
L 224.82 114.325533 
L 226.68 131.784202 
L 228.54 146.791071 
L 230.4 150.123799 
L 232.26 144.269708 
L 234.12 141.137966 
L 235.98 149.694824 
L 237.84 164.732066 
L 239.7 168.020882 
L 241.56 144.433687 
L 243.42 100.004018 
L 245.28 60.537104 
L 247.14 48.065261 
L 249 60.362992 
L 250.86 74.719172 
L 252.72 70.259662 
L 254.58 48.57199 
L 256.44 35.31165 
L 258.3 58.406322 
L 260.16 118.662466 
L 262.02 183.28416 
L 263.88 214.741902 
L 265.74 205.311974 
L 267.6 180.8898 
L 269.46 174.299167 
L 271.32 194.751487 
L 273.18 218.132356 
L 275.04 207.086718 
L 276.9 147.535318 
L 278.76 67.774626 
L 280.62 15.151877 
L 282.48 12.188501 
L 284.34 39.44241 
L 286.2 58.272389 
L 288.06 47.076338 
L 289.92 20.347894 
L 291.78 16.27712 
L 293.64 60.899616 
L 295.5 139.116933 
L 297.36 204.906936 
L 299.22 224.062678 
L 301.08 203.146118 
L 302.94 177.396524 
L 304.8 176.030576 
L 306.66 197.222348 
L 308.52 210.921587 
L 310.38 187.013175 
L 314.1 62.70955 
L 315.96 32.700938 
L 317.82 41.843005 
L 319.68 65.743908 
L 321.54 76.293754 
L 323.4 66.121835 
L 325.26 52.509798 
L 327.12 59.851376 
L 328.98 95.330953 
L 330.84 140.339632 
L 332.7 168.020882 
L 334.56 168.27194 
L 336.42 153.181151 
L 338.28 141.57748 
L 340.14 141.839235 
L 342 147.464258 
L 343.86 146.185871 
L 345.72 133.198771 
L 347.58 115.99118 
L 349.44 105.909178 
L 351.3 106.489884 
L 353.16 112.189278 
L 355.02 116.696318 
L 356.88 119.372382 
L 358.74 123.403629 
L 360.6 129.11412 
L 362.46 130.737468 
L 364.32 121.834467 
L 366.18 104.375798 
L 368.04 89.368929 
L 369.9 86.036201 
L 371.76 91.890292 
L 373.62 95.022034 
L 375.48 86.465176 
L 377.34 71.427934 
L 379.2 68.139118 
L 381.06 91.726313 
L 382.92 136.155982 
L 384.78 175.622896 
L 386.64 188.094739 
L 388.5 175.797008 
L 390.36 161.440828 
L 392.22 165.900338 
L 394.08 187.58801 
L 395.94 200.84835 
L 397.8 177.753678 
L 399.66 117.497534 
L 401.52 52.87584 
L 403.38 21.418098 
L 405.24 30.848026 
L 407.1 55.2702 
L 408.96 61.860833 
L 410.82 41.408513 
L 412.68 18.027644 
L 414.54 29.073282 
L 416.4 88.624682 
L 418.26 168.385374 
L 420.12 221.008123 
L 421.98 223.971499 
L 423.84 196.71759 
L 425.7 177.887611 
L 427.56 189.083662 
L 429.42 215.812106 
L 431.28 219.88288 
L 433.14 175.260384 
L 435 97.043067 
L 436.86 31.253064 
L 438.72 12.097322 
L 440.58 33.013882 
L 442.44 58.763476 
L 444.3 60.129424 
L 446.16 38.937652 
L 448.02 25.238413 
L 449.88 49.146825 
L 453.6 173.45045 
L 455.46 203.459062 
L 457.32 194.316995 
L 459.18 170.416092 
L 461.04 159.866246 
L 462.9 170.038165 
L 464.76 183.650202 
L 466.62 176.308624 
L 468.48 140.829047 
L 470.34 95.820368 
L 472.2 68.139118 
L 474.06 67.88806 
L 475.92 82.978849 
L 477.78 94.58252 
L 479.64 94.320765 
L 481.5 88.695742 
L 483.36 89.974129 
L 485.22 102.961229 
L 487.08 120.16882 
L 488.94 130.250822 
L 490.8 129.670116 
L 492.66 123.970722 
L 494.52 119.463682 
L 496.38 116.787618 
L 498.24 112.756371 
L 500.1 107.04588 
L 501.96 105.422532 
L 503.82 114.325533 
L 505.68 131.784202 
L 507.54 146.791071 
L 509.4 150.123799 
L 511.26 144.269708 
L 513.12 141.137966 
L 514.98 149.694824 
L 516.84 164.732066 
L 518.7 168.020882 
L 520.56 144.433687 
L 522.42 100.004018 
L 524.28 60.537104 
L 526.14 48.065261 
L 528 60.362992 
L 529.86 74.719172 
L 531.72 70.259662 
L 533.58 48.57199 
L 535.44 35.31165 
L 537.3 58.406322 
L 539.16 118.662466 
L 541.02 183.28416 
L 542.88 214.741902 
L 544.74 205.311974 
L 546.6 180.8898 
L 548.46 174.299167 
L 550.32 194.751487 
L 552.18 218.132356 
L 554.04 207.086718 
L 555.9 147.535318 
L 557.76 67.774626 
L 559.62 15.151877 
L 561.48 12.188501 
L 563.34 39.44241 
L 565.2 58.272389 
L 565.2 58.272389 
" style="fill:none;stroke:#000000;stroke-linecap:square;stroke-width:2;"/>
   </g>
  </g>
 </g>
 <defs>
  <clipPath id="p4a0b68fb6b">
   <rect height="221.76" width="558" x="7.2" y="7.2"/>
  </clipPath>
 </defs>
</svg>
